<?xml version="1.0" encoding="UTF-8" standalone="no"?>
<svg width="900" height="600" viewBox="0 0 900 600" fill="none" xmlns="http://www.w3.org/2000/svg">
  <!-- Main pitch -->
  <rect width="900" height="600" fill="#2E7D32" />
  
  <!-- Outer border -->
  <rect x="50" y="50" width="800" height="500" stroke="white" stroke-width="2" fill="none" />
  
  <!-- Center line -->
  <line x1="450" y1="50" x2="450" y2="550" stroke="white" stroke-width="2" />
  
  <!-- Center circle -->
  <circle cx="450" cy="300" r="60" stroke="white" stroke-width="2" fill="none" />
  <circle cx="450" cy="300" r="2" fill="white" />
  
  <!-- Left penalty area -->
  <rect x="50" y="175" width="132" height="250" stroke="white" stroke-width="2" fill="none" />
  
  <!-- Right penalty area -->
  <rect x="718" y="175" width="132" height="250" stroke="white" stroke-width="2" fill="none" />
  
  <!-- Left goal area -->
  <rect x="50" y="235" width="55" height="130" stroke="white" stroke-width="2" fill="none" />
  
  <!-- Right goal area -->
  <rect x="795" y="235" width="55" height="130" stroke="white" stroke-width="2" fill="none" />
  
  <!-- Left penalty spot -->
  <circle cx="130" cy="300" r="2" fill="white" />
  
  <!-- Right penalty spot -->
  <circle cx="770" cy="300" r="2" fill="white" />
  
  <!-- Left penalty arc -->
  <path d="M 182 245 A 90 90 0 0 1 182 355" stroke="white" stroke-width="2" fill="none" />
  
  <!-- Right penalty arc -->
  <path d="M 718 245 A 90 90 0 0 0 718 355" stroke="white" stroke-width="2" fill="none" />
  
  <!-- Left corner arcs -->
  <path d="M 60 50 A 10 10 0 0 1 50 60" stroke="white" stroke-width="2" fill="none" />
  <path d="M 60 550 A 10 10 0 0 0 50 540" stroke="white" stroke-width="2" fill="none" />
  
  <!-- Right corner arcs -->
  <path d="M 840 50 A 10 10 0 0 0 850 60" stroke="white" stroke-width="2" fill="none" />
  <path d="M 840 550 A 10 10 0 0 1 850 540" stroke="white" stroke-width="2" fill="none" />
  
  <!-- Goals -->
  <rect x="40" y="265" width="10" height="70" stroke="white" stroke-width="2" fill="none" />
  <rect x="850" y="265" width="10" height="70" stroke="white" stroke-width="2" fill="none" />
</svg>